<?xml version="1.0" encoding="UTF-8"?>
<svg version="1.1" xmlns="http://www.w3.org/2000/svg" width="500" height="500">
<path d="M0 0 C165 0 330 0 500 0 C500 165 500 330 500 500 C335 500 170 500 0 500 C0 335 0 170 0 0 Z " fill="#BEBEBE" transform="translate(0,0)"/>
<path d="M0 0 C10.1475 -0.061875 20.295 -0.12375 30.75 -0.1875 C33.92979492 -0.21481201 37.10958984 -0.24212402 40.38574219 -0.27026367 C42.93944928 -0.27903522 45.4931606 -0.28667757 48.046875 -0.29296875 C49.9952124 -0.3159906 49.9952124 -0.3159906 51.98291016 -0.33947754 C63.042392 -0.34261587 73.10393227 1.45027202 83 6.5 C83.671521 6.84111816 84.34304199 7.18223633 85.03491211 7.53369141 C98.26751573 14.61141286 109.21509058 26.66742411 114 41 C119.3659352 59.85016028 117.59949485 77.04391269 108.30078125 94.19140625 C100.5697724 107.53347017 88.4054294 116.0758921 74 121 C71.00936656 121.78407725 68.0356569 122.40282159 65 123 C64.67 123.33 64.34 123.66 64 124 C62.0056827 124.09405142 60.00800457 124.11743249 58.01147461 124.11352539 C56.06259338 124.11334412 56.06259338 124.11334412 54.07434082 124.11315918 C52.68367465 124.1081227 51.29300894 124.10295606 49.90234375 124.09765625 C48.64522583 124.09664917 47.38810791 124.09564209 46.09289551 124.09460449 C41.37442113 124.08935275 36.65595969 124.07539165 31.9375 124.0625 C21.398125 124.041875 10.85875 124.02125 0 124 C0 83.08 0 42.16 0 0 Z " fill="#222222" transform="translate(273,283)"/>
<path d="M0 0 C1.29349365 0.00523682 2.5869873 0.01047363 3.91967773 0.01586914 C4.9496714 0.01799156 4.9496714 0.01799156 6.00047302 0.02015686 C8.20144949 0.0257706 10.40232557 0.03832532 12.60327148 0.05102539 C14.09220231 0.05603863 15.58113473 0.06060184 17.07006836 0.06469727 C20.72700223 0.07574446 24.38387707 0.09301826 28.04077148 0.11352539 C34.74799814 18.76409281 34.74799814 18.76409281 37.41577148 28.17602539 C39.75545538 36.38390523 42.45302414 44.45689695 45.17431641 52.54516602 C49.32177587 64.89376402 53.33598776 77.2848703 57.34741211 89.67822266 C57.8740379 91.303814 58.40072979 92.92938393 58.92749023 94.55493164 C59.18255341 95.34307755 59.43761658 96.13122345 59.70040894 96.94325256 C61.03513416 101.05684708 62.38870411 105.16318939 63.76977539 109.26147461 C64.04900345 110.09106186 64.32823151 110.92064911 64.61592102 111.77537537 C65.15074988 113.36018148 65.68821868 114.94409984 66.22868347 116.5269928 C68.04077148 121.89427601 68.04077148 121.89427601 68.04077148 124.11352539 C57.81077148 124.11352539 47.58077148 124.11352539 37.04077148 124.11352539 C36.09202148 121.63852539 35.14327148 119.16352539 34.16577148 116.61352539 C33.8707373 115.85104492 33.57570313 115.08856445 33.27172852 114.30297852 C33.03309082 113.67327148 32.79445313 113.04356445 32.54858398 112.39477539 C32.30769043 111.76635742 32.06679687 111.13793945 31.81860352 110.49047852 C30.70494614 107.087287 29.90923684 103.58738681 29.04077148 100.11352539 C17.16077148 100.11352539 5.28077148 100.11352539 -6.95922852 100.11352539 C-9.59922852 108.03352539 -12.23922852 115.95352539 -14.95922852 124.11352539 C-24.19922852 124.11352539 -33.43922852 124.11352539 -42.95922852 124.11352539 C-42.31468975 119.60175403 -41.82025915 116.19653513 -40.44384766 112.03735352 C-40.1354747 111.09570847 -39.82710175 110.15406342 -39.50938416 109.18388367 C-39.17443436 108.18097794 -38.83948456 107.1780722 -38.49438477 106.14477539 C-38.14553726 105.08438553 -37.79668976 104.02399567 -37.43727112 102.93147278 C-36.30405323 99.49038422 -35.16288582 96.05198822 -34.02172852 92.61352539 C-33.23706195 90.2350775 -32.45304785 87.85641427 -31.66967773 85.47753906 C-30.50317859 81.93539924 -29.33631172 78.39338702 -28.16723633 74.85209656 C-25.26409042 66.05663823 -22.4089555 57.24691516 -19.58422852 48.42602539 C-16.31958555 38.26795786 -13.0068732 28.12642223 -9.64666748 17.99960327 C-9.15062062 16.50401412 -8.65552848 15.00810794 -8.16143799 13.51187134 C-7.48122563 11.45357283 -6.79703691 9.39664226 -6.11157227 7.34008789 C-5.7196167 6.1601123 -5.32766113 4.98013672 -4.92382812 3.7644043 C-3.60435503 0.13827449 -3.60435503 0.13827449 0 0 Z " fill="#232323" transform="translate(108.959228515625,127.886474609375)"/>
<path d="M0 0 C3.125 1.625 3.125 1.625 5 4 C5.60027206 7.52659832 5.28509061 9.40130971 3.75 12.625 C2.00392187 14.99467747 0.15215157 16.99627268 -2 19 C0.31 21.64 2.62 24.28 5 27 C6.74627478 24.38058783 7.38722388 22.96175123 8 20 C9.32 20 10.64 20 12 20 C11.09945946 27.71891892 11.09945946 27.71891892 10.28125 30.03125 C9.76930728 32.09495688 9.76930728 32.09495688 11.21484375 33.921875 C11.78332031 34.52515625 12.35179687 35.1284375 12.9375 35.75 C13.50339844 36.36359375 14.06929687 36.9771875 14.65234375 37.609375 C15.09707031 38.06828125 15.54179687 38.5271875 16 39 C14.02 39 12.04 39 10 39 C9.34 37.68 8.68 36.36 8 35 C7.48953125 35.28875 6.9790625 35.5775 6.453125 35.875 C0.03592728 39.15186692 -5.84074881 40.06294559 -13 39 C-16.07365786 37.19196596 -17.43019732 36.13960536 -19 33 C-19.51678914 29.82543814 -19.53761795 27.81056245 -17.73046875 25.0859375 C-13.74398396 20.37199198 -13.74398396 20.37199198 -11 19 C-12.12451727 16.0280615 -13.22293791 13.66559313 -15 11 C-15.51940701 6.91894494 -15.67222913 4.87389788 -13.125 1.5625 C-8.69597294 -0.65201353 -4.86039511 -0.78085036 0 0 Z " fill="#2C2C2C" transform="translate(237,246)"/>
<path d="M0 0 C2.89465573 0.76807652 4.72205749 2.18573567 6.41796875 4.65625 C7.87205016 8.3942289 7.31296249 11.81353368 6.1640625 15.57421875 C4.6640625 18.13671875 4.6640625 18.13671875 2.1640625 19.57421875 C-2.09845601 20.31859239 -5.54488888 20.31657171 -9.3359375 18.13671875 C-11.5476953 14.35829917 -12.2507621 10.94119041 -11.8359375 6.57421875 C-9.69187907 1.06252927 -5.55989724 -0.41838692 0 0 Z " fill="#BBBBBB" transform="translate(439.8359375,386.42578125)"/>
<path d="M0 0 C3.45201639 1.47721422 5.64961936 3.43794001 8.25 6.125 C8.95640625 6.84945313 9.6628125 7.57390625 10.390625 8.3203125 C11.18726563 9.15175781 11.18726563 9.15175781 12 10 C9.16890725 13.02634053 7.32545966 14.75620181 3.0625 15.203125 C-2.38461538 15.32692308 -2.38461538 15.32692308 -5 13.9375 C-6.65698093 10.72709945 -6.54994079 8.54406288 -6 5 C-4.17330216 2.87679469 -2.33951898 1.6084193 0 0 Z " fill="#BABABA" transform="translate(229,267)"/>
<path d="M0 0 C2.89465573 0.76807652 4.72205749 2.18573567 6.41796875 4.65625 C7.87205016 8.3942289 7.31296249 11.81353368 6.1640625 15.57421875 C4.6640625 18.13671875 4.6640625 18.13671875 2.1640625 19.57421875 C-2.09845601 20.31859239 -5.54488888 20.31657171 -9.3359375 18.13671875 C-11.5476953 14.35829917 -12.2507621 10.94119041 -11.8359375 6.57421875 C-9.69187907 1.06252927 -5.55989724 -0.41838692 0 0 Z M-7.53515625 3.80859375 C-9.17519264 6.03470921 -9.2383774 7.3302286 -9.2109375 10.07421875 C-9.21867187 10.84765625 -9.22640625 11.62109375 -9.234375 12.41796875 C-8.74008597 15.09294468 -8.01483769 15.97769741 -5.8359375 17.57421875 C-1.21594575 18.07799704 -1.21594575 18.07799704 3.0390625 16.51171875 C4.75221811 13.56128409 4.98619083 10.95378052 5.1640625 7.57421875 C4.20763368 4.77850373 3.81107272 3.89772386 1.1640625 2.57421875 C-3.45168636 2.0681992 -3.45168636 2.0681992 -7.53515625 3.80859375 Z " fill="#434343" transform="translate(439.8359375,386.42578125)"/>
<path d="M0 0 C3 2 3 2 3.5 4.3125 C2.78352876 8.16353294 1.04877293 9.64413001 -2 12 C-4.87858286 12.0846642 -5.72457342 11.25643165 -7.8125 9.3125 C-9.42710148 6.16827607 -8.96399716 4.33691324 -8 1 C-5.22899606 -0.38550197 -3.0665294 -0.1877467 0 0 Z " fill="#B7B7B7" transform="translate(235,249)"/>
<path d="M0 0 C3.63 0 7.26 0 11 0 C11 0.66 11 1.32 11 2 C8.03 2 5.06 2 2 2 C2 3.98 2 5.96 2 8 C4.97 8 7.94 8 11 8 C11 8.66 11 9.32 11 10 C8.03 10 5.06 10 2 10 C2 12.31 2 14.62 2 17 C4.97 17 7.94 17 11 17 C11 17.66 11 18.32 11 19 C7.37 19 3.74 19 0 19 C0 12.73 0 6.46 0 0 Z " fill="#363636" transform="translate(396,387)"/>
<path d="M0 0 C0 0.99 0 1.98 0 3 C-1.27875 2.95875 -2.5575 2.9175 -3.875 2.875 C-6.01871492 2.75787127 -6.01871492 2.75787127 -8 3 C-10.18939909 4.78107249 -10.18939909 4.78107249 -10.265625 7.09375 C-10.26046875 7.8878125 -10.2553125 8.681875 -10.25 9.5 C-10.25773437 10.69109375 -10.25773437 10.69109375 -10.265625 11.90625 C-10.18939909 14.21892751 -10.18939909 14.21892751 -8 16 C-5.78927023 16.24253813 -5.78927023 16.24253813 -3.375 16.125 C-2.55773437 16.10695313 -1.74046875 16.08890625 -0.8984375 16.0703125 C0.04128906 16.03550781 0.04128906 16.03550781 1 16 C0.67 16.99 0.34 17.98 0 19 C-7.9380531 19.61061947 -7.9380531 19.61061947 -11.5 17.5625 C-13.7117578 13.78408042 -14.4148246 10.36697166 -14 6 C-11.41346854 -0.64914631 -6.23328689 -0.73332787 0 0 Z " fill="#3B3B3B" transform="translate(424,387)"/>
<path d="M0 0 C3.16115776 1.36983503 3.9927092 1.9890638 6 5 C6.23581916 9.26832684 5.66897061 12.9450848 3.375 16.5625 C0.15583729 18.51094058 -2.31002358 18.28384434 -6 18 C-6 17.67 -6 17.34 -6 17 C-3.36 16.34 -0.72 15.68 2 15 C2.19658808 13.58456585 2.38187546 12.16755969 2.5625 10.75 C2.66691406 9.96109375 2.77132813 9.1721875 2.87890625 8.359375 C3.00027349 5.99467126 2.69633257 4.2488963 2 2 C1.34 2 0.68 2 0 2 C0 1.34 0 0.68 0 0 Z " fill="#373737" transform="translate(441,388)"/>
<path d="M0 0 C1.21236328 0.04060547 1.21236328 0.04060547 2.44921875 0.08203125 C3.06410156 0.11683594 3.67898438 0.15164063 4.3125 0.1875 C4.3125 1.1775 4.3125 2.1675 4.3125 3.1875 C3.075 3.105 1.8375 3.0225 0.5625 2.9375 C-2.79256698 2.9137052 -3.44197904 2.99108323 -6.1875 5.1875 C-6.6825 5.8475 -7.1775 6.5075 -7.6875 7.1875 C-7.6875 3.1875 -7.6875 3.1875 -6.48046875 1.44921875 C-4.16996219 -0.17669327 -2.79641289 -0.12158317 0 0 Z " fill="#3A3A3A" transform="translate(419.6875,386.8125)"/>
<path d="M0 0 C0.99 0.33 1.98 0.66 3 1 C3.33 3.64 3.66 6.28 4 9 C3.01 9 2.02 9 1 9 C0.67 6.03 0.34 3.06 0 0 Z " fill="#474747" transform="translate(410,393)"/>
<path d="M0 0 C0.66 0 1.32 0 2 0 C1.61502006 2.23288365 1.10506663 3.83656302 -0.125 5.75 C-2.99745901 7.66497267 -5.64483583 7.18991495 -9 7 C-9 6.67 -9 6.34 -9 6 C-6.36 5.34 -3.72 4.68 -1 4 C-0.67 2.68 -0.34 1.36 0 0 Z " fill="#313131" transform="translate(444,399)"/>
</svg>
